<?xml version="1.0" encoding="UTF-8" standalone="no"?>
<svg
   xmlns:dc="http://purl.org/dc/elements/1.1/"
   xmlns:cc="http://creativecommons.org/ns#"
   xmlns:rdf="http://www.w3.org/1999/02/22-rdf-syntax-ns#"
   xmlns:svg="http://www.w3.org/2000/svg"
   xmlns="http://www.w3.org/2000/svg"
   xmlns:sodipodi="http://sodipodi.sourceforge.net/DTD/sodipodi-0.dtd"
   xmlns:inkscape="http://www.inkscape.org/namespaces/inkscape"
   width="528.63367"
   height="153.39005"
   version="1.1"
   id="svg22"
   sodipodi:docname="servercore-logo.svg"
   style="fill:#0078d6"
   inkscape:version="0.92.2 (5c3e80d, 2017-08-06)">
  <metadata
     id="metadata28">
    <rdf:RDF>
      <cc:Work
         rdf:about="">
        <dc:format>image/svg+xml</dc:format>
        <dc:type
           rdf:resource="http://purl.org/dc/dcmitype/StillImage" />
        <dc:title />
      </cc:Work>
    </rdf:RDF>
  </metadata>
  <defs
     id="defs26" />
  <sodipodi:namedview
     pagecolor="#ffffff"
     bordercolor="#666666"
     borderopacity="1"
     objecttolerance="10"
     gridtolerance="10"
     guidetolerance="10"
     inkscape:pageopacity="0"
     inkscape:pageshadow="2"
     inkscape:window-width="1920"
     inkscape:window-height="1017"
     id="namedview24"
     showgrid="false"
     showguides="true"
     inkscape:guide-bbox="true"
     fit-margin-top="0"
     fit-margin-left="0"
     fit-margin-right="0"
     fit-margin-bottom="0"
     inkscape:zoom="1.5252101"
     inkscape:cx="265.84461"
     inkscape:cy="112.59815"
     inkscape:window-x="1912"
     inkscape:window-y="-8"
     inkscape:window-maximized="1"
     inkscape:current-layer="text43"
     inkscape:measure-start="113.099,73.7603"
     inkscape:measure-end="113.099,-122.606" />
  <path
     d="M 0,21.870339 62.511697,13.290302 V 73.700765 H 0 M 70.041117,12.099603 152.86474,0 V 73.192967 H 70.041117 M 0,80.092017 H 62.511697 V 140.67758 L 0,131.92244 M 70.041117,80.89749 h 82.823623 v 72.49256 L 70.041117,141.65816"
     id="path2"
     style="fill:#00188f;fill-opacity:1;stroke-width:1.75102794"
     inkscape:connector-curvature="0" />
  <g
     aria-label="Windows Server 2016"
     style="font-style:normal;font-weight:normal;font-size:73.37268829px;line-height:1.25;font-family:sans-serif;letter-spacing:0px;word-spacing:0px;fill:#00188f;fill-opacity:1;stroke:none;stroke-width:1.83431709"
     id="text43"
     transform="translate(51.564738)">
    <path
       d="m 180.24225,18.328317 -14.50973,51.375212 h -7.05782 l -10.56882,-37.54618 q -0.68071,-2.400376 -0.82401,-5.23067 h -0.14331 q -0.21496,2.651161 -0.93149,5.159017 L 135.5666,69.703529 h -6.98617 L 113.5333,18.328317 h 6.6279 l 10.92708,39.409159 q 0.68071,2.472029 0.85984,5.159017 h 0.17913 q 0.17914,-1.898805 1.11063,-5.159017 l 11.357,-39.409159 h 5.76807 l 10.89125,39.695771 q 0.57323,2.042111 0.85984,4.800752 h 0.14331 q 0.1433,-1.862979 0.96731,-4.944058 l 10.49717,-39.552465 z"
       style="font-style:normal;font-variant:normal;font-weight:normal;font-stretch:normal;font-family:'Segoe UI';-inkscape-font-specification:'Segoe UI';letter-spacing:-0.91000003px;fill:#00188f;fill-opacity:1;stroke-width:1.83431709"
       id="path98"
       inkscape:connector-curvature="0" />
    <path
       d="m 189.14871,23.702293 q -1.57636,0 -2.68699,-1.074795 -1.11062,-1.074795 -1.11062,-2.722815 0,-1.648019 1.11062,-2.722814 1.11063,-1.110622 2.68699,-1.110622 1.61219,0 2.72282,1.110622 1.14644,1.074795 1.14644,2.722814 0,1.576367 -1.14644,2.686988 -1.11063,1.110622 -2.72282,1.110622 z m 2.86612,46.001236 h -5.87554 V 33.017185 h 5.87554 z"
       style="font-style:normal;font-variant:normal;font-weight:normal;font-stretch:normal;font-family:'Segoe UI';-inkscape-font-specification:'Segoe UI';letter-spacing:-0.91000003px;fill:#00188f;fill-opacity:1;stroke-width:1.83431709"
       id="path100"
       inkscape:connector-curvature="0" />
    <path
       d="m 233.45176,69.703529 h -5.87554 v -20.92268 q 0,-11.679442 -8.52671,-11.679442 -4.40666,0 -7.30861,3.331865 -2.86612,3.296039 -2.86612,8.347577 v 20.92268 h -5.87555 V 33.017185 h 5.87555 v 6.090507 h 0.14331 q 4.15587,-6.950343 12.0377,-6.950343 6.01886,0 9.20742,3.905089 3.18855,3.869263 3.18855,11.213697 z"
       style="font-style:normal;font-variant:normal;font-weight:normal;font-stretch:normal;font-family:'Segoe UI';-inkscape-font-specification:'Segoe UI';letter-spacing:-0.91000003px;fill:#00188f;fill-opacity:1;stroke-width:1.83431709"
       id="path102"
       inkscape:connector-curvature="0" />
    <path
       d="m 274.96035,69.703529 h -5.87555 v -6.233812 h -0.1433 q -4.08422,7.093649 -12.61093,7.093649 -6.91452,0 -11.07039,-4.908232 -4.12005,-4.944058 -4.12005,-13.434941 0,-9.099933 4.58579,-14.581388 4.58579,-5.481456 12.21684,-5.481456 7.55939,0 10.99874,5.9472 h 0.1433 V 15.390543 h 5.87555 z M 269.0848,53.115856 v -5.409803 q 0,-4.442487 -2.93777,-7.523566 -2.93777,-3.08108 -7.45191,-3.08108 -5.37398,0 -8.45506,3.940916 -3.08108,3.940916 -3.08108,10.891258 0,6.341292 2.93777,10.031423 2.9736,3.654303 7.95349,3.654303 4.90823,0 7.95348,-3.546824 3.08108,-3.546824 3.08108,-8.956627 z"
       style="font-style:normal;font-variant:normal;font-weight:normal;font-stretch:normal;font-family:'Segoe UI';-inkscape-font-specification:'Segoe UI';letter-spacing:-0.91000003px;fill:#00188f;fill-opacity:1;stroke-width:1.83431709"
       id="path104"
       inkscape:connector-curvature="0" />
    <path
       d="m 301.35016,70.563366 q -8.13262,0 -13.00502,-5.123191 -4.83658,-5.159017 -4.83658,-13.6499 0,-9.243239 5.05154,-14.438082 5.05153,-5.194844 13.6499,-5.194844 8.20427,0 12.79006,5.051538 4.62162,5.051537 4.62162,14.008164 0,8.777495 -4.97989,14.079818 -4.94405,5.266497 -13.29163,5.266497 z m 0.42992,-33.461959 q -5.66059,0 -8.95663,3.869263 -3.29604,3.833436 -3.29604,10.604646 0,6.520425 3.33187,10.282208 3.33186,3.761783 8.9208,3.761783 5.69641,0 8.74167,-3.69013 3.08108,-3.69013 3.08108,-10.497167 0,-6.878689 -3.08108,-10.604646 -3.04526,-3.725957 -8.74167,-3.725957 z"
       style="font-style:normal;font-variant:normal;font-weight:normal;font-stretch:normal;font-family:'Segoe UI';-inkscape-font-specification:'Segoe UI';letter-spacing:-0.91000003px;fill:#00188f;fill-opacity:1;stroke-width:1.83431709"
       id="path106"
       inkscape:connector-curvature="0" />
    <path
       d="m 374.31441,33.017185 -10.99874,36.686344 h -6.0905 l -7.5594,-26.26083 q -0.42991,-1.504713 -0.57322,-3.403518 h -0.14331 q -0.10748,1.289754 -0.75235,3.331865 l -8.20427,26.332483 h -5.87555 L 323.01085,33.017185 h 6.16216 l 7.59522,27.586411 q 0.35827,1.253928 0.50157,3.296039 h 0.28661 q 0.10748,-1.576366 0.64488,-3.367692 l 8.45506,-27.514758 h 5.37397 l 7.59522,27.658064 q 0.35827,1.325581 0.5374,3.296039 h 0.28661 q 0.0717,-1.397234 0.60905,-3.296039 l 7.45192,-27.658064 z"
       style="font-style:normal;font-variant:normal;font-weight:normal;font-stretch:normal;font-family:'Segoe UI';-inkscape-font-specification:'Segoe UI';letter-spacing:-0.91000003px;fill:#00188f;fill-opacity:1;stroke-width:1.83431709"
       id="path108"
       inkscape:connector-curvature="0" />
    <path
       d="m 377.99021,68.377949 v -6.305466 q 4.80075,3.546824 10.56882,3.546824 7.73852,0 7.73852,-5.159017 0,-1.468887 -0.6807,-2.472029 -0.64488,-1.038968 -1.79133,-1.827152 -1.11062,-0.788183 -2.65116,-1.397233 -1.50471,-0.644878 -3.26021,-1.325581 -2.4362,-0.967316 -4.29918,-1.934632 -1.82715,-1.003142 -3.08108,-2.221243 -1.2181,-1.253928 -1.86298,-2.830294 -0.60905,-1.576367 -0.60905,-3.690131 0,-2.579508 1.18228,-4.549966 1.18227,-2.006285 3.15273,-3.331865 1.97046,-1.361408 4.47831,-2.042111 2.54368,-0.680704 5.23067,-0.680704 4.76493,0 8.52671,1.648019 v 5.947201 q -4.04839,-2.651162 -9.31489,-2.651162 -1.64802,0 -2.9736,0.394092 -1.32558,0.358265 -2.2929,1.038968 -0.93149,0.680704 -1.46888,1.64802 -0.50158,0.931489 -0.50158,2.077937 0,1.433061 0.50158,2.400376 0.53739,0.967316 1.54054,1.719673 1.00314,0.752356 2.4362,1.361407 1.43306,0.609051 3.26021,1.325581 2.4362,0.931489 4.37083,1.934631 1.93464,0.967316 3.29604,2.221244 1.36141,1.218101 2.07794,2.830294 0.75236,1.612193 0.75236,3.833436 0,2.722815 -1.2181,4.729099 -1.18228,2.006285 -3.18856,3.331865 -2.00629,1.325581 -4.62162,1.970458 -2.61534,0.644878 -5.48146,0.644878 -5.66059,0 -9.81646,-2.185417 z"
       style="font-style:normal;font-variant:normal;font-weight:normal;font-stretch:normal;font-family:'Segoe UI';-inkscape-font-specification:'Segoe UI';letter-spacing:-0.91000003px;fill:#00188f;fill-opacity:1;stroke-width:1.83431709"
       id="path110"
       inkscape:connector-curvature="0" />
    <path
       d="m 113.25078,139.62559 v -7.09365 q 1.2181,1.0748 2.90195,1.93463 1.71967,0.85984 3.58265,1.46889 1.8988,0.57323 3.79761,0.89566 1.8988,0.32244 3.511,0.32244 5.5531,0 8.27592,-2.04211 2.75864,-2.07794 2.75864,-5.9472 0,-2.07794 -0.93149,-3.61848 -0.89566,-1.54054 -2.50786,-2.79446 -1.61219,-1.28976 -3.83343,-2.43621 -2.18542,-1.18227 -4.7291,-2.47202 -2.68699,-1.36141 -5.01571,-2.75865 -2.32872,-1.39723 -4.0484,-3.08108 -1.71967,-1.68384 -2.72281,-3.79761 -0.96732,-2.14959 -0.96732,-5.01571 0,-3.510994 1.54054,-6.090503 1.54054,-2.615335 4.0484,-4.299181 2.50785,-1.683846 5.69641,-2.507856 3.22439,-0.824009 6.55625,-0.824009 7.59522,0 11.07039,1.827152 v 6.77121 q -4.54996,-3.152733 -11.67944,-3.152733 -1.97046,0 -3.94091,0.429918 -1.97046,0.394092 -3.511,1.325581 -1.54054,0.931489 -2.50786,2.400376 -0.96731,1.468885 -0.96731,3.582655 0,1.97045 0.71653,3.40351 0.75235,1.43306 2.18542,2.61534 1.43306,1.18227 3.47517,2.2929 2.07793,1.11062 4.76492,2.4362 2.75864,1.3614 5.23067,2.86612 2.47203,1.50471 4.33501,3.33186 1.86298,1.82716 2.93777,4.0484 1.11062,2.22124 1.11062,5.08736 0,3.79761 -1.50471,6.44877 -1.46889,2.61534 -4.01257,4.26336 -2.50785,1.64802 -5.80389,2.36455 -3.29604,0.75236 -6.95034,0.75236 -1.21811,0 -3.00943,-0.21496 -1.79133,-0.17914 -3.6543,-0.57323 -1.86298,-0.35826 -3.54683,-0.89566 -1.64802,-0.57322 -2.65116,-1.25393 z"
       style="font-style:normal;font-variant:normal;font-weight:normal;font-stretch:normal;font-family:'Segoe UI';-inkscape-font-specification:'Segoe UI';letter-spacing:-0.91000003px;fill:#00188f;fill-opacity:1;stroke-width:1.83431709"
       id="path112"
       inkscape:connector-curvature="0" />
    <path
       d="m 182.41743,124.82924 h -25.90256 q 0.1433,6.12634 3.29604,9.4582 3.15273,3.33187 8.67001,3.33187 6.19799,0 11.39283,-4.08422 v 5.51728 q -4.83658,3.511 -12.79006,3.511 -7.77435,0 -12.21684,-4.97989 -4.44249,-5.01571 -4.44249,-14.07982 0,-8.56253 4.83658,-13.93651 4.8724,-5.4098 12.07353,-5.4098 7.20113,0 11.14205,4.65745 3.94091,4.65744 3.94091,12.93336 z m -6.01885,-4.97988 q -0.0358,-5.08736 -2.47203,-7.91766 -2.40038,-2.83029 -6.69956,-2.83029 -4.15587,0 -7.05782,2.9736 -2.90195,2.9736 -3.58265,7.77435 z"
       style="font-style:normal;font-variant:normal;font-weight:normal;font-stretch:normal;font-family:'Segoe UI';-inkscape-font-specification:'Segoe UI';letter-spacing:-0.91000003px;fill:#00188f;fill-opacity:1;stroke-width:1.83431709"
       id="path114"
       inkscape:connector-curvature="0" />
    <path
       d="m 209.5596,110.96439 q -1.54054,-1.18228 -4.44248,-1.18228 -3.76179,0 -6.30547,3.54683 -2.50785,3.54682 -2.50785,9.67315 v 18.70144 h -5.87555 v -36.68635 h 5.87555 v 7.5594 h 0.1433 q 1.25393,-3.86926 3.83344,-6.01886 2.57951,-2.18541 5.76807,-2.18541 2.29289,0 3.51099,0.50157 z"
       style="font-style:normal;font-variant:normal;font-weight:normal;font-stretch:normal;font-family:'Segoe UI';-inkscape-font-specification:'Segoe UI';letter-spacing:-0.91000003px;fill:#00188f;fill-opacity:1;stroke-width:1.83431709"
       id="path116"
       inkscape:connector-curvature="0" />
    <path
       d="m 243.86707,105.01718 -14.61722,36.68635 h -5.76806 L 209.5811,105.01718 h 6.44877 l 9.31489,26.65493 q 1.03897,2.93777 1.28976,5.12319 h 0.1433 q 0.35827,-2.75864 1.14645,-4.97989 l 9.74481,-26.79823 z"
       style="font-style:normal;font-variant:normal;font-weight:normal;font-stretch:normal;font-family:'Segoe UI';-inkscape-font-specification:'Segoe UI';letter-spacing:-0.91000003px;fill:#00188f;fill-opacity:1;stroke-width:1.83431709"
       id="path118"
       inkscape:connector-curvature="0" />
    <path
       d="m 278.7119,124.82924 h -25.90257 q 0.14331,6.12634 3.29604,9.4582 3.15273,3.33187 8.67002,3.33187 6.19798,0 11.39282,-4.08422 v 5.51728 q -4.83657,3.511 -12.79006,3.511 -7.77435,0 -12.21684,-4.97989 -4.44248,-5.01571 -4.44248,-14.07982 0,-8.56253 4.83657,-13.93651 4.87241,-5.4098 12.07354,-5.4098 7.20113,0 11.14204,4.65745 3.94092,4.65744 3.94092,12.93336 z m -6.01886,-4.97988 q -0.0358,-5.08736 -2.47203,-7.91766 -2.40037,-2.83029 -6.69955,-2.83029 -4.15588,0 -7.05782,2.9736 -2.90195,2.9736 -3.58266,7.77435 z"
       style="font-style:normal;font-variant:normal;font-weight:normal;font-stretch:normal;font-family:'Segoe UI';-inkscape-font-specification:'Segoe UI';letter-spacing:-0.91000003px;fill:#00188f;fill-opacity:1;stroke-width:1.83431709"
       id="path120"
       inkscape:connector-curvature="0" />
    <path
       d="m 305.85407,110.96439 q -1.54054,-1.18228 -4.44249,-1.18228 -3.76178,0 -6.30546,3.54683 -2.50786,3.54682 -2.50786,9.67315 v 18.70144 h -5.87555 v -36.68635 h 5.87555 v 7.5594 h 0.14331 q 1.25392,-3.86926 3.83343,-6.01886 2.57951,-2.18541 5.76807,-2.18541 2.2929,0 3.511,0.50157 z"
       style="font-style:normal;font-variant:normal;font-weight:normal;font-stretch:normal;font-family:'Segoe UI';-inkscape-font-specification:'Segoe UI';letter-spacing:-0.91000003px;fill:#00188f;fill-opacity:1;stroke-width:1.83431709"
       id="path122"
       inkscape:connector-curvature="0" />
    <path
       d="m 352.18492,103.79908 q 0,-2.36455 -0.75236,-4.120044 -0.71653,-1.755499 -2.00628,-2.901948 -1.25393,-1.182274 -2.9736,-1.755499 -1.71967,-0.573224 -3.72596,-0.573224 -1.71967,0 -3.36769,0.465745 -1.64802,0.465745 -3.22439,1.289754 -1.54054,0.82401 -3.00942,1.970458 -1.43306,1.146448 -2.68699,2.543678 v -6.305461 q 2.47203,-2.400376 5.51728,-3.654304 3.08108,-1.289754 7.48774,-1.289754 3.15273,0 5.83972,0.931489 2.68699,0.895663 4.65745,2.651162 1.97046,1.755498 3.08108,4.335007 1.14645,2.579509 1.14645,5.911371 0,3.04526 -0.71653,5.51728 -0.68071,2.47203 -2.11377,4.65745 -1.39723,2.18542 -3.54682,4.1917 -2.14959,2.00629 -5.05154,4.08422 -3.61848,2.57951 -5.98303,4.40667 -2.32872,1.82715 -3.72595,3.43934 -1.36141,1.57637 -1.93463,3.18856 -0.5374,1.57636 -0.5374,3.6543 h 25.58012 v 5.2665 h -31.70645 v -2.54368 q 0,-3.29604 0.71653,-5.8039 0.71653,-2.50785 2.36455,-4.76492 1.64801,-2.25707 4.29918,-4.51414 2.68698,-2.25707 6.55625,-5.08737 2.79446,-2.00628 4.65744,-3.83343 1.89881,-1.82715 3.04526,-3.65431 1.14644,-1.82715 1.61219,-3.69013 0.50157,-1.8988 0.50157,-4.01257 z"
       style="font-style:normal;font-variant:normal;font-weight:normal;font-stretch:normal;font-family:'Segoe UI';-inkscape-font-specification:'Segoe UI';letter-spacing:-0.91000003px;fill:#00188f;fill-opacity:1;stroke-width:1.83431709"
       id="path124"
       inkscape:connector-curvature="0" />
    <path
       d="m 399.71235,115.80096 q 0,6.44878 -1.18227,11.42866 -1.14645,4.97988 -3.3677,8.41923 -2.18541,3.40352 -5.4098,5.19484 -3.18856,1.7555 -7.27278,1.7555 -3.86926,0 -6.91452,-1.68384 -3.00942,-1.71968 -5.08736,-4.97989 -2.07794,-3.26021 -3.15273,-7.98931 -1.0748,-4.76493 -1.0748,-10.89126 0,-6.73538 1.11062,-11.8944 1.14645,-5.15902 3.33187,-8.634187 2.18542,-3.510998 5.4098,-5.266497 3.26021,-1.791325 7.45192,-1.791325 16.15775,0 16.15775,26.332479 z m -6.01885,0.57323 q 0,-21.925825 -10.42552,-21.925825 -10.99873,0 -10.99873,22.319915 0,20.8152 10.78377,20.8152 10.64048,0 10.64048,-21.20929 z"
       style="font-style:normal;font-variant:normal;font-weight:normal;font-stretch:normal;font-family:'Segoe UI';-inkscape-font-specification:'Segoe UI';letter-spacing:-0.91000003px;fill:#00188f;fill-opacity:1;stroke-width:1.83431709"
       id="path126"
       inkscape:connector-curvature="0" />
    <path
       d="m 427.75016,141.70353 h -5.87555 V 97.314486 q -0.6807,0.680704 -2.00628,1.576366 -1.28976,0.859837 -2.93778,1.719668 -1.61219,0.85984 -3.43934,1.6122 -1.79133,0.75235 -3.511,1.18227 v -5.947198 q 1.93463,-0.537398 4.08422,-1.43306 2.18542,-0.931489 4.26336,-2.042111 2.11376,-1.146448 3.97674,-2.36455 1.86298,-1.253928 3.22439,-2.436202 h 2.22124 z"
       style="font-style:normal;font-variant:normal;font-weight:normal;font-stretch:normal;font-family:'Segoe UI';-inkscape-font-specification:'Segoe UI';letter-spacing:-0.91000003px;fill:#00188f;fill-opacity:1;stroke-width:1.83431709"
       id="path128"
       inkscape:connector-curvature="0" />
    <path
       d="m 444.43097,106.6652 q 0,-3.76178 1.21811,-6.914509 1.2181,-3.15274 3.36769,-5.44563 2.14959,-2.2929 5.12319,-3.58265 2.9736,-1.25393 6.44877,-1.25393 3.86926,0 6.95034,1.61219 3.04526,1.612201 5.19485,4.62162 2.11376,3.04526 3.22438,7.416089 1.11062,4.37083 1.11062,9.85229 0,6.69956 -1.46888,12.14518 -1.50472,5.48146 -4.22753,9.35072 -2.75864,3.90509 -6.62791,6.01886 -3.86926,2.11376 -8.63418,2.11376 -5.30233,0 -8.52671,-1.46889 v -5.5531 q 3.97674,2.04211 8.3834,2.04211 3.43935,0 6.19799,-1.54054 2.75864,-1.54054 4.7291,-4.37084 1.97045,-2.79447 3.04525,-6.77121 1.03897,-3.97674 1.03897,-8.84915 h -0.14331 q -3.54682,6.41295 -11.71527,6.41295 -3.36769,0 -6.05468,-1.14645 -2.72281,-1.14645 -4.62162,-3.26021 -1.93463,-2.07794 -2.9736,-4.97989 -1.03897,-2.90194 -1.03897,-6.44877 z m 6.01886,-0.75235 q 0,2.68698 0.6807,4.83658 0.68071,2.14959 1.97046,3.6543 1.25393,1.50471 3.11691,2.2929 1.86297,0.82401 4.22752,0.82401 2.18542,0 4.0484,-0.82401 1.86298,-0.82401 3.22438,-2.25707 1.36141,-1.39724 2.1496,-3.29604 0.75235,-1.86298 0.75235,-3.97675 0,-2.65116 -0.75235,-4.97988 -0.75236,-2.292899 -2.11377,-4.012568 -1.36141,-1.71967 -3.22438,-2.72281 -1.89881,-0.96732 -4.19171,-0.96732 -2.22124,0 -4.04839,0.82401 -1.82715,0.85984 -3.11691,2.36455 -1.28975,1.50471 -2.00628,3.582648 -0.71653,2.11376 -0.71653,4.65745 z"
       style="font-style:normal;font-variant:normal;font-weight:normal;font-stretch:normal;font-family:'Segoe UI';-inkscape-font-specification:'Segoe UI';letter-spacing:-0.91000003px;fill:#00188f;fill-opacity:1;stroke-width:1.83431709"
       id="path130"
       inkscape:connector-curvature="0" />
  </g>
</svg>
